<?xml version="1.0" standalone="no"?>
<!DOCTYPE svg PUBLIC "-//W3C//DTD SVG 20010904//EN"
 "http://www.w3.org/TR/2001/REC-SVG-20010904/DTD/svg10.dtd">
<svg version="1.0" xmlns="http://www.w3.org/2000/svg"
 width="500.000000pt" height="500.000000pt" viewBox="0 0 500.000000 500.000000"
 preserveAspectRatio="xMidYMid meet">
<metadata>
Created by potrace 1.14, written by Peter Selinger 2001-2017
</metadata>
<g transform="translate(0.000000,500.000000) scale(0.100000,-0.100000)"
fill="#000000" stroke="none">
<path d="M1249 3417 c-960 -479 -1088 -547 -1027 -547 5 0 482 235 1060 522
l1050 522 1049 -524 c869 -435 1051 -522 1059 -510 8 12 -175 107 -1041 540
-882 441 -1051 523 -1060 510 -8 -11 -12 -12 -16 -2 -2 6 -10 12 -16 11 -7 0
-483 -235 -1058 -522z"/>
<path d="M2177 3496 c-77 -32 -141 -87 -188 -158 -47 -73 -62 -140 -57 -244 8
-168 114 -304 276 -354 214 -66 438 51 503 263 59 191 -29 396 -208 484 -51
24 -71 28 -163 31 -93 2 -112 0 -163 -22z m260 -77 c78 -29 163 -114 189 -190
26 -78 24 -161 -8 -231 -84 -184 -299 -246 -464 -135 -166 111 -190 324 -53
472 91 99 213 129 336 84z"/>
<path d="M2384 3223 l-111 -56 -56 -114 c-32 -62 -57 -115 -57 -118 0 -3 54
22 120 55 l120 60 55 110 c30 60 55 112 55 115 0 10 -16 3 -126 -52z m-64
-138 c18 -19 32 -36 29 -39 -12 -11 -132 -67 -135 -63 -6 6 58 137 66 137 3 0
21 -16 40 -35z"/>
<path d="M350 2505 l0 -366 -26 -26 c-22 -22 -32 -25 -75 -21 l-49 5 0 -32 c0
-30 3 -33 43 -38 55 -8 113 6 141 33 42 39 46 78 46 454 l0 356 -40 0 -40 0 0
-365z"/>
<path d="M600 2535 l0 -335 35 0 35 0 0 243 1 242 107 -243 c106 -241 107
-242 136 -240 29 3 34 12 135 245 l106 243 3 -245 2 -245 35 0 35 0 0 335 0
335 -32 0 -33 0 -104 -243 c-58 -133 -114 -262 -126 -286 l-22 -44 -103 234
c-56 129 -113 258 -126 287 -20 46 -26 52 -53 52 l-31 0 0 -335z"/>
<path d="M1400 2535 l0 -335 35 0 35 0 0 145 0 145 118 0 c88 0 123 -4 139
-15 13 -9 38 -62 69 -145 l47 -130 39 0 c21 0 38 4 38 9 0 9 -71 201 -91 243
-6 15 -23 35 -37 44 l-25 16 39 22 c96 53 112 211 29 285 -50 43 -90 51 -272
51 l-163 0 0 -335z m332 265 c53 -15 78 -51 78 -114 0 -101 -43 -126 -220
-126 l-120 0 0 118 c0 65 3 122 7 125 10 11 214 8 255 -3z"/>
<path d="M4080 2572 c-61 -30 -72 -122 -17 -151 12 -6 54 -21 92 -34 66 -21
70 -24 73 -54 2 -23 -3 -35 -20 -47 -30 -21 -96 -20 -140 3 -32 16 -38 16 -43
3 -6 -17 -9 -15 32 -36 19 -9 56 -16 92 -16 49 0 65 4 90 26 25 21 31 34 31
64 0 49 -27 72 -116 96 -76 20 -101 45 -85 86 5 14 17 28 26 32 30 11 99 6
129 -9 35 -18 33 -18 40 1 4 11 -6 20 -37 34 -53 24 -102 25 -147 2z"/>
<path d="M2080 2410 l0 -170 110 0 c91 0 110 3 110 15 0 12 -17 15 -90 15
l-90 0 0 65 0 65 85 0 c69 0 85 3 85 15 0 12 -16 15 -85 15 l-85 0 0 60 0 60
90 0 c73 0 90 3 90 15 0 12 -19 15 -110 15 l-110 0 0 -170z"/>
<path d="M2366 2543 c15 -21 43 -58 61 -82 20 -27 30 -48 24 -55 -4 -6 -34
-46 -65 -88 -53 -73 -55 -78 -33 -78 18 0 36 17 73 70 27 38 52 69 56 70 3 0
29 -31 57 -70 34 -46 58 -70 71 -70 11 0 20 3 20 6 0 3 -27 41 -60 84 -33 43
-60 82 -60 86 0 4 25 40 55 80 30 40 55 76 55 79 0 3 -9 5 -19 5 -12 0 -37
-24 -67 -65 -26 -35 -51 -62 -55 -59 -5 2 -27 32 -50 64 -32 46 -48 60 -67 60
l-24 0 28 -37z"/>
<path d="M2680 2410 c0 -163 1 -170 20 -170 18 0 20 7 20 75 l0 75 60 0 c69 0
123 19 139 48 20 38 13 91 -15 117 -25 23 -35 25 -125 25 l-99 0 0 -170z m192
123 c22 -20 24 -76 2 -94 -9 -7 -43 -13 -82 -13 l-67 -1 -3 63 -3 62 67 0 c49
0 73 -5 86 -17z"/>
<path d="M3000 2410 l0 -170 110 0 c91 0 110 3 110 15 0 12 -17 15 -90 15
l-90 0 0 65 0 65 85 0 c69 0 85 3 85 15 0 12 -16 15 -85 15 l-85 0 0 60 0 60
90 0 c73 0 90 3 90 15 0 12 -19 15 -110 15 l-110 0 0 -170z"/>
<path d="M3280 2410 c0 -163 1 -170 20 -170 18 0 20 7 20 75 l0 75 54 0 c30 0
61 -3 70 -6 8 -3 27 -37 41 -75 20 -52 31 -69 46 -69 10 0 19 2 19 5 0 15 -45
123 -57 136 -13 15 -11 20 11 42 36 36 36 98 1 132 -22 23 -31 25 -125 25
l-100 0 0 -170z m195 126 c23 -17 24 -71 2 -94 -12 -11 -39 -18 -87 -20 l-70
-4 0 66 0 66 68 0 c42 0 75 -5 87 -14z"/>
<path d="M3580 2565 c0 -12 13 -15 60 -15 l60 0 0 -155 c0 -148 1 -155 20
-155 19 0 20 7 20 155 l0 155 60 0 c47 0 60 3 60 15 0 13 -22 15 -140 15 -118
0 -140 -2 -140 -15z"/>
<path d="M3910 2410 c0 -163 1 -170 20 -170 19 0 20 7 20 170 0 163 -1 170
-20 170 -19 0 -20 -7 -20 -170z"/>
<path d="M4340 2410 l0 -170 110 0 c91 0 110 3 110 15 0 12 -17 15 -90 15
l-90 0 0 65 0 65 85 0 c69 0 85 3 85 15 0 12 -16 15 -85 15 l-85 0 0 60 0 59
87 3 c58 2 88 7 91 16 3 9 -23 12 -107 12 l-111 0 0 -170z"/>
</g>
</svg>
